<?xml version="1.0" standalone="no"?>
<!DOCTYPE svg PUBLIC "-//W3C//DTD SVG 20010904//EN"
 "http://www.w3.org/TR/2001/REC-SVG-20010904/DTD/svg10.dtd">
<svg version="1.0" xmlns="http://www.w3.org/2000/svg"
 width="128.000000pt" height="128.000000pt" viewBox="0 0 128.000000 128.000000"
 preserveAspectRatio="xMidYMid meet">
<metadata>
Created by potrace 1.11, written by Peter Selinger 2001-2013
</metadata>
<g transform="translate(0.000000,128.000000) scale(0.100000,-0.100000)"
fill="#000000" stroke="none">
<path d="M117 1274 c-4 -4 -7 -17 -7 -29 0 -27 -47 -72 -80 -77 -33 -4 -33
-32 1 -36 32 -4 76 -48 81 -82 2 -14 10 -25 18 -25 8 0 16 11 18 25 5 34 39
69 76 78 38 10 41 36 5 40 -32 4 -76 48 -81 81 -3 25 -19 37 -31 25z m33 -110
c11 -12 10 -18 -3 -32 -16 -15 -18 -15 -34 0 -13 14 -14 20 -3 32 7 9 16 16
20 16 4 0 13 -7 20 -16z"/>
<path d="M681 1240 c-143 -55 -183 -250 -74 -351 119 -112 305 -66 358 88 38
111 -38 245 -154 272 -56 13 -78 12 -130 -9z"/>
<path d="M1201 1226 c-9 -10 -8 -16 3 -25 10 -9 16 -8 25 3 9 10 8 16 -3 25
-10 9 -16 8 -25 -3z"/>
<path d="M310 910 c0 -23 25 -27 33 -6 7 16 -1 26 -20 26 -7 0 -13 -9 -13 -20z"/>
<path d="M1090 806 c0 -21 21 -31 30 -15 5 7 6 17 4 21 -9 14 -34 9 -34 -6z"/>
<path d="M305 766 c-95 -30 -181 -98 -230 -182 -45 -76 -63 -217 -39 -298 31
-106 114 -203 214 -250 58 -28 75 -31 160 -31 86 0 101 3 162 32 104 49 184
141 216 248 6 22 10 79 9 125 -2 71 -7 95 -31 145 -33 66 -112 151 -166 179
-90 46 -211 59 -295 32z"/>
<path d="M1093 614 c-39 -19 -73 -70 -73 -109 0 -100 114 -168 194 -116 87 58
85 175 -5 223 -41 22 -74 23 -116 2z"/>
<path d="M1244 205 c-9 -22 5 -38 22 -24 18 15 18 25 -1 33 -9 3 -18 -1 -21
-9z"/>
<path d="M807 26 c-7 -18 24 -31 34 -14 4 6 5 16 3 20 -8 13 -31 9 -37 -6z"/>
</g>
</svg>
